# xmcd
#
# Track frame offsets: 
#        151
#        23607
#        45096
#        67371
#        89796
#        111001
#        128101
#        156527
#        185626
#        203964
#        252714
#
# Disc length: 3897 seconds
#
# Revision: 0
# Processed by: cddbd v1.5.1PL2 Copyright (c) Steve Scherf et al.
# Submitted via: ExactAudioCopy v0.95a4
#
DISCID=a40f370b
DTITLE=Steve Earle - Kerryville Folk Festival, June11, 1988
DYEAR=1988
DGENRE=Country
TTITLE0=Baby Let Me Follow You Down
TTITLE1=Angry Young Man
TTITLE2=Guitar Town
TTITLE3=Hometown Blues
TTITLE4=My Old Friend The Blues
TTITLE5=Someday
TTITLE6=Copperhead Road
TTITLE7=Nothing But a Child
TTITLE8=I Ain't Never Satisfied
TTITLE9=No. 29
TTITLE10=Nebraska
EXTD=
EXTT0=
EXTT1=
EXTT2=
EXTT3=
EXTT4=
EXTT5=
EXTT6=
EXTT7=
EXTT8=
EXTT9=
EXTT10=
PLAYORDER=
